<?xml version="1.0" encoding="UTF-8"?>
<svg version="1.1" xmlns="http://www.w3.org/2000/svg" width="400" height="400">
<path d="M0 0 C0.99 0.495 0.99 0.495 2 1 C-5.59 39.61 -13.18 78.22 -21 118 C15.42279727 117.88152727 15.42279727 117.88152727 51.84545898 117.72973633 C58.94152832 117.71618652 58.94152832 117.71618652 62.27919006 117.71366882 C64.57596081 117.70910706 66.87272506 117.69865098 69.16944885 117.68327332 C104.54243478 117.45858198 104.54243478 117.45858198 117.5 124.75 C118.15669678 125.09925537 118.81339355 125.44851074 119.48999023 125.80834961 C124.76263557 128.68747861 129.53350792 131.97085194 134 136 C134.598125 136.50660156 135.19625 137.01320312 135.8125 137.53515625 C146.2612572 147.02766558 153.36336623 162.04643171 155 176 C155.13389138 179.41801968 155.13978494 182.82975122 155.125 186.25 C155.12886719 187.16007813 155.13273437 188.07015625 155.13671875 189.0078125 C155.13478516 190.31105469 155.13478516 190.31105469 155.1328125 191.640625 C155.13168457 192.42985352 155.13055664 193.21908203 155.12939453 194.03222656 C155 196 155 196 154 198 C150.64636205 196.48195603 147.96525763 194.50236532 145.0625 192.25 C130.7607072 181.81253267 113.98694504 177.05569406 96.375 179.50390625 C85.1717499 181.48028606 76.50758363 185.32648246 66.9296875 191.33984375 C66.2417662 191.77127686 65.55384491 192.20270996 64.84507751 192.6472168 C56.54388316 197.88224889 48.35174586 203.28022199 40.19750977 208.74072266 C38.43215863 209.9193681 36.66289642 211.09217534 34.88989258 212.25927734 C25.1324417 218.68428261 16.14043179 224.6074246 9 234 C8.21109375 234.95390625 7.4221875 235.9078125 6.609375 236.890625 C5.68898437 238.05851562 5.68898437 238.05851562 4.75 239.25 C0.6504808 244.32423006 -3.73370862 249.0623033 -8.20214844 253.80761719 C-11.44518831 257.27026747 -14.53414875 260.79268593 -17.5 264.5 C-20.98562736 268.8570342 -24.67793667 272.94121533 -28.5 277 C-33.11793357 281.90427594 -37.45865651 286.93171983 -41.66796875 292.1953125 C-44.94046134 296.13107411 -48.41914844 299.86111805 -51.92797852 303.58618164 C-53.98892193 305.78125917 -55.95626581 307.93974181 -57.7265625 310.37890625 C-58.35691406 311.18134766 -58.35691406 311.18134766 -59 312 C-59.66 312 -60.32 312 -61 312 C-59.33081768 299.8300735 -56.86302614 287.81960006 -54.46484375 275.77734375 C-54.0214796 273.54110368 -53.57833241 271.30482059 -53.13539124 269.0684967 C-52.21166152 264.40771315 -51.28612765 259.74729304 -50.35913086 255.0871582 C-49.17065697 249.11237491 -47.98550599 243.13693873 -46.80153561 237.16126156 C-45.88877914 232.55523082 -44.97491184 227.9494211 -44.06064034 223.34369087 C-43.62306508 221.13928717 -43.18568978 218.93484378 -42.74851799 216.73036003 C-42.1392908 213.65979512 -41.52871964 210.58950067 -40.91772461 207.51928711 C-40.6473085 206.15485725 -40.6473085 206.15485725 -40.37142944 204.76286316 C-40.20466202 203.92632202 -40.03789459 203.08978088 -39.86607361 202.22789001 C-39.72210616 201.5036531 -39.57813871 200.77941618 -39.42980862 200.03323269 C-39.00166968 198.00789849 -38.51499162 196.0048432 -38 194 C-38.59008158 194.00276538 -39.18016315 194.00553076 -39.78812599 194.00837994 C-54.20516427 194.07488996 -68.62218877 194.12440152 -83.03934669 194.15543652 C-90.01163906 194.17084715 -96.98382846 194.19182427 -103.95605469 194.22631836 C-110.69285867 194.25963159 -117.42953395 194.27688641 -124.1664238 194.28463173 C-126.72825166 194.29014683 -129.29007412 194.30091601 -131.85185623 194.31719017 C-163.83615082 194.5121746 -163.83615082 194.5121746 -177.25 187.3125 C-177.91765381 186.96509766 -178.58530762 186.61769531 -179.27319336 186.25976562 C-195.43629395 177.58526223 -206.96813681 163.56049891 -212.4375 146.0625 C-215.11404257 135.51029012 -215.64526087 124.75747493 -214 114 C-210.64636205 115.51804397 -207.96525763 117.49763468 -205.0625 119.75 C-190.47887067 130.42142067 -173.89082601 134.7571717 -156 133 C-136.51948211 129.74355522 -121.07248784 118.34205338 -105.125 107.4375 C-103.18539388 106.12231207 -101.2452927 104.80785393 -99.3046875 103.49414062 C-97.4344543 102.22460855 -95.56464743 100.95444812 -93.6953125 99.68359375 C-92.83994904 99.10218124 -91.98458557 98.52076874 -91.103302 97.92173767 C-79.71118065 90.13138195 -79.71118065 90.13138195 -70.125 80.3125 C-69.09130122 79.07170101 -68.0561244 77.83213199 -67.01953125 76.59375 C-66.51244629 75.9853125 -66.00536133 75.376875 -65.48291016 74.75 C-63.32800222 72.20696739 -61.07416684 69.76058728 -58.8125 67.3125 C-55.64169258 63.85984304 -52.61964969 60.34469034 -49.6875 56.6875 C-45.61186956 51.63083286 -41.2463704 46.91651697 -36.79760742 42.19213867 C-33.55466358 38.72955888 -30.46577823 35.20722279 -27.5 31.5 C-23.50465267 26.50581584 -19.20484053 21.87143161 -14.82324219 17.2199707 C-10.53510664 12.64211341 -6.528972 7.911215 -2.609375 3.01171875 C-1 1 -1 1 0 0 Z " fill="#3C8EE1" transform="translate(228,39)"/>
<path d="M0 0 C0.99 0.495 0.99 0.495 2 1 C-0.9768686 16.23855406 -3.95813213 31.47624332 -6.94467068 46.71290493 C-8.33118006 53.78711686 -9.71623441 60.86160794 -11.09790039 67.93676758 C-12.30176478 74.10143114 -13.50832169 80.26556042 -14.71815354 86.42905575 C-15.35901573 89.694435 -15.99809799 92.96014651 -16.63476372 96.22634697 C-17.34466088 99.86702074 -18.05931304 103.50672974 -18.77514648 107.14624023 C-18.98661819 108.23668137 -19.1980899 109.3271225 -19.41596985 110.4506073 C-19.61087006 111.43643799 -19.80577026 112.42226868 -20.00657654 113.43797302 C-20.17526465 114.29984946 -20.34395277 115.1617259 -20.51775265 116.04971981 C-21 118 -21 118 -22 119 C-26.47091756 119.3414894 -30.95524156 119.32542248 -35.4375 119.375 C-36.68466797 119.41238281 -37.93183594 119.44976562 -39.21679688 119.48828125 C-48.2697889 119.57391123 -55.39004043 118.35072493 -62.14038086 111.97998047 C-68.45082813 105.24689354 -70.5544196 99.15606637 -70.40136719 90.03393555 C-69.99063028 78.66458185 -64.61021218 73.07809338 -57.078125 65.25390625 C-54.41145075 62.47380858 -51.96166746 59.57923094 -49.5625 56.5625 C-45.53488871 51.54077775 -41.20654144 46.87417239 -36.79711914 42.19165039 C-33.55436739 38.72921156 -30.46563219 35.20704024 -27.5 31.5 C-23.50465267 26.50581584 -19.20484053 21.87143161 -14.82324219 17.2199707 C-10.53510664 12.64211341 -6.528972 7.911215 -2.609375 3.01171875 C-1 1 -1 1 0 0 Z " fill="#265EAB" transform="translate(228,39)"/>
<path d="M0 0 C3.96509139 -0.09990539 7.92968163 -0.17194834 11.89575195 -0.21972656 C13.89756051 -0.24940781 15.89901919 -0.30027058 17.90039062 -0.3515625 C26.76356394 -0.44086399 33.00349732 0.46546884 40.26953125 5.60546875 C45.92212206 11.40116312 49.15672419 17.16230746 49.4375 25.375 C49.33606084 27.25292504 49.19022877 29.1289828 49 31 C48.93683594 31.86367188 48.87367188 32.72734375 48.80859375 33.6171875 C47.2581509 43.03158821 40.13157926 48.77176659 33.69921875 55.24121094 C31.43520712 57.58459309 29.39879105 60.07293997 27.375 62.625 C23.08528714 67.99514427 18.45654369 72.99180673 13.7734375 78.015625 C9.46894486 82.63353761 5.35687595 87.40761607 1.26171875 92.2109375 C0.23716651 93.41161822 -0.7875786 94.61213438 -1.8125 95.8125 C-2.32546631 96.41360596 -2.83843262 97.01471191 -3.36694336 97.6340332 C-7.46152516 102.41393832 -11.6659966 107.07590437 -15.94140625 111.6953125 C-18.01475803 113.9339196 -18.01475803 113.9339196 -19.65234375 116.3046875 C-20.09707031 116.86414063 -20.54179687 117.42359375 -21 118 C-21.66 118 -22.32 118 -23 118 C-21.33081768 105.8300735 -18.86302614 93.81960006 -16.46484375 81.77734375 C-16.0214796 79.54110368 -15.57833241 77.30482059 -15.13539124 75.0684967 C-14.21166152 70.40771315 -13.28612765 65.74729304 -12.35913086 61.0871582 C-11.17065697 55.11237491 -9.98550599 49.13693873 -8.80153561 43.16126156 C-7.88877914 38.55523082 -6.97491184 33.9494211 -6.06064034 29.34369087 C-5.62306508 27.13928717 -5.18568978 24.93484378 -4.74851799 22.73036003 C-4.1392908 19.65979512 -3.52871964 16.58950067 -2.91772461 13.51928711 C-2.7374472 12.60966721 -2.5571698 11.7000473 -2.37142944 10.76286316 C-2.20466202 9.92632202 -2.03789459 9.08978088 -1.86607361 8.22789001 C-1.72210616 7.5036531 -1.57813871 6.77941618 -1.42980862 6.03323269 C-1.00166968 4.00789849 -0.51499162 2.0048432 0 0 Z " fill="#533DAD" transform="translate(190,233)"/>
<path d="M0 0 C7.34215878 5.7131173 12.36895844 11.65070149 16.5 19.9453125 C17.0775 20.8115625 17.655 21.6778125 18.25 22.5703125 C19.86844205 25.64535239 20.16346595 28.51266519 20.5 31.9453125 C17.14636205 30.42726853 14.46525763 28.44767782 11.5625 26.1953125 C-2.7392928 15.75784517 -19.51305496 11.00100656 -37.125 13.44921875 C-48.34840303 15.42915376 -57.02795671 19.29352468 -66.62890625 25.30859375 C-67.31774902 25.73981537 -68.0065918 26.17103699 -68.71630859 26.61532593 C-77.61449617 32.22802314 -86.30097956 38.15586748 -95 44.0703125 C-96.70945623 45.22943097 -98.41909076 46.38828653 -100.12890625 47.546875 C-104.25465695 50.3433408 -108.37800979 53.14330703 -112.5 55.9453125 C-113.16 55.6153125 -113.82 55.2853125 -114.5 54.9453125 C-113.85933594 54.2440625 -113.21867188 53.5428125 -112.55859375 52.8203125 C-106.51505538 46.1913345 -100.54494594 39.51265103 -94.71875 32.69140625 C-89.39122739 26.45478501 -84.04022167 20.25528587 -78.51953125 14.1875 C-76.59836907 12.0545269 -74.73521941 9.88137965 -72.875 7.6953125 C-53.82543129 -13.96378617 -23.54642648 -16.18816821 0 0 Z " fill="#242691" transform="translate(361.5,205.0546875)"/>
<path d="M0 0 C0.99 0.495 0.99 0.495 2 1 C1.45472656 1.59425781 0.90945312 2.18851563 0.34765625 2.80078125 C-3.66574885 7.2120966 -7.57816273 11.66167703 -11.3125 16.3125 C-15.72138108 21.76376101 -20.4352398 26.87713498 -25.21484375 32 C-27.41527566 34.36007542 -29.57081457 36.75159287 -31.6875 39.1875 C-32.21859375 39.79722656 -32.7496875 40.40695313 -33.296875 41.03515625 C-34.58250573 42.5183495 -35.862847 44.00612999 -37.140625 45.49609375 C-43.80994065 53.12951115 -50.58325039 59.06143552 -60 63 C-60.82113281 63.35707031 -61.64226562 63.71414062 -62.48828125 64.08203125 C-75.57836742 67.50380016 -92.16751531 66.74927647 -104 60 C-105.46953125 59.18595703 -105.46953125 59.18595703 -106.96875 58.35546875 C-118.94344626 51.22537407 -127.35858885 41.25527083 -131.6875 27.875 C-132 26 -132 26 -131 23 C-130.59652344 23.4125 -130.19304687 23.825 -129.77734375 24.25 C-116.64964124 36.73664697 -99.23448793 42.7139344 -81.29223633 42.47094727 C-59.00328514 41.50697634 -41.52305451 28.32423445 -23.8125 16.1875 C-21.83061482 14.83840395 -19.84819654 13.49009068 -17.86523438 12.14257812 C-13.53821062 9.20036523 -9.21630665 6.25081171 -4.89900208 3.2943573 C-3.27291862 2.18602097 -1.63737622 1.09158414 0 0 Z " fill="#083191" transform="translate(147,130)"/>
<path d="M0 0 C0.99 0.495 0.99 0.495 2 1 C1.65858441 4.07274031 1.40147385 5.61014929 -0.85522461 7.80151367 C-3.33102379 10.33931352 -4.55191905 12.72420799 -6.06640625 15.92578125 C-6.90981567 17.69199829 -6.90981567 17.69199829 -7.77026367 19.49389648 C-8.36777785 20.76671641 -8.96518751 22.03958541 -9.5625 23.3125 C-10.18707556 24.62677886 -10.81249209 25.94065838 -11.4387207 27.25415039 C-13.00920014 30.55227093 -14.57074208 33.85453074 -16.12976074 37.15808105 C-18.30275287 41.75736261 -20.49539589 46.34730613 -22.6875 50.9375 C-23.34661377 52.31977783 -23.34661377 52.31977783 -24.01904297 53.72998047 C-28.4711829 63.03959707 -33.09019918 72.26378315 -37.73193359 81.47998047 C-39.66228739 85.31615911 -41.58108133 89.15809237 -43.5 93 C-44.11452029 94.22919819 -44.72909936 95.45836699 -45.34375 96.6875 C-45.8903125 97.780625 -46.436875 98.87375 -47 100 C-48 102 -49 104 -50 106 C-55.86270823 104.10324146 -60.22568781 100.80126442 -63.3125 95.5 C-66.23576336 89.15615463 -66 81.86691169 -66 75 C-64.24067784 72.90429306 -62.46631345 70.95630883 -60.5625 69 C-56.73128482 64.96669874 -53.03141388 60.91805792 -49.5625 56.5625 C-45.53488871 51.54077775 -41.20654144 46.87417239 -36.79711914 42.19165039 C-33.55436739 38.72921156 -30.46563219 35.20704024 -27.5 31.5 C-23.50465267 26.50581584 -19.20484053 21.87143161 -14.82324219 17.2199707 C-10.53510664 12.64211341 -6.528972 7.911215 -2.609375 3.01171875 C-1 1 -1 1 0 0 Z " fill="#3B8DD2" transform="translate(228,39)"/>
<path d="M0 0 C3.8994475 0 5.90415319 1.55403035 8.625 4.125 C13.25020248 9.10288677 15.14068067 13.64223944 15.375 20.4375 C15.02829238 29.86281086 11.88044078 34.58130974 5.44921875 41.375 C3.06080347 43.93483264 0.87057367 46.57669912 -1.3125 49.3125 C-5.725387 54.76871405 -10.44471028 59.88615451 -15.2265625 65.015625 C-19.53105514 69.63353761 -23.64312405 74.40761607 -27.73828125 79.2109375 C-28.76283349 80.41161822 -29.7875786 81.61213438 -30.8125 82.8125 C-31.32546631 83.41360596 -31.83843262 84.01471191 -32.36694336 84.6340332 C-36.46152516 89.41393832 -40.6659966 94.07590437 -44.94140625 98.6953125 C-47.01475803 100.9339196 -47.01475803 100.9339196 -48.65234375 103.3046875 C-49.09707031 103.86414063 -49.54179687 104.42359375 -50 105 C-50.66 105 -51.32 105 -52 105 C-51.67 103.68 -51.34 102.36 -51 101 C-50.34 101 -49.68 101 -49 101 C-48.87448257 100.26288284 -48.74896515 99.52576569 -48.61964417 98.76631165 C-48.03438682 96.15351498 -47.26275384 94.13082861 -46.08569336 91.73901367 C-45.69115463 90.93014206 -45.29661591 90.12127045 -44.89012146 89.28788757 C-44.24648399 87.99102776 -44.24648399 87.99102776 -43.58984375 86.66796875 C-43.14411514 85.75856033 -42.69838654 84.84915192 -42.239151 83.91218567 C-40.8107079 81.00124657 -39.37417913 78.09438157 -37.9375 75.1875 C-36.99752537 73.27434468 -36.05806713 71.36093555 -35.11914062 69.44726562 C-30.08915592 59.20655842 -25.0135722 48.98895561 -19.8979187 38.790802 C-18.44628804 35.89568121 -16.99873896 32.99852157 -15.55078125 30.1015625 C-9.05078125 17.1015625 -9.05078125 17.1015625 -7.49853516 14.00097656 C-6.50445121 12.01021738 -5.51449626 10.01739071 -4.52880859 8.02246094 C-4.07973145 7.1152832 -3.6306543 6.20810547 -3.16796875 5.2734375 C-2.57471802 4.06953369 -2.57471802 4.06953369 -1.96948242 2.84130859 C-1 1 -1 1 0 0 Z " fill="#835AD5" transform="translate(219,246)"/>
<path d="M0 0 C0.46148437 0.36351562 0.92296875 0.72703125 1.3984375 1.1015625 C18.18520239 14.03997812 35.67523448 20.89198623 57 19 C67.78818265 17.19657007 77.32381084 12.8861324 87 8 C85.79158378 14.76101228 80.32661061 20.2239714 75.0625 24.3125 C63.59443337 32.2807152 51.98074258 35.26185164 38 34 C26.55002184 31.83134574 16.96110854 26.44359996 9 18 C8.35417969 17.75765625 7.70835938 17.5153125 7.04296875 17.265625 C3.95896198 15.35507396 3.46208345 12.91817547 2.25 9.5625 C1.82203125 8.40878906 1.3940625 7.25507813 0.953125 6.06640625 C0 3 0 3 0 0 Z " fill="#115DB4" transform="translate(15,153)"/>
<path d="M0 0 C2.24331002 1.88378121 4.27027008 3.89527008 6.33984375 5.96484375 C6.99984375 6.29484375 7.65984375 6.62484375 8.33984375 6.96484375 C11.43312062 11.75066834 12.87016256 16.32866942 13.33984375 21.96484375 C9.9862058 20.44679978 7.30510138 18.46720907 4.40234375 16.21484375 C-9.89944905 5.77737642 -26.67321121 1.02053781 -44.28515625 3.46875 C-54.04563619 5.19060886 -62.23255135 8.30156795 -70.72265625 13.33984375 C-71.69203125 13.87609375 -72.66140625 14.41234375 -73.66015625 14.96484375 C-74.32015625 14.63484375 -74.98015625 14.30484375 -75.66015625 13.96484375 C-67.25550531 3.11520344 -58.94446865 -7.33195049 -44.85546875 -10.70703125 C-27.48797362 -12.49049041 -14.26077937 -10.82961441 0 0 Z " fill="#5942B4" transform="translate(368.66015625,215.03515625)"/>
<path d="M0 0 C0.33 0 0.66 0 1 0 C1.02578125 0.9178125 1.0515625 1.835625 1.078125 2.78125 C1.55480404 14.4227906 1.55480404 14.4227906 7.83203125 23.7421875 C13.54124121 28.30518896 18.93191402 30.19599745 26.2734375 30.4140625 C28.00400391 30.47207031 28.00400391 30.47207031 29.76953125 30.53125 C30.95933594 30.5621875 32.14914063 30.593125 33.375 30.625 C34.58800781 30.66367188 35.80101562 30.70234375 37.05078125 30.7421875 C40.03370521 30.83613786 43.01662825 30.92180807 46 31 C45.85957123 32.64630328 45.71250671 34.29204179 45.5625 35.9375 C45.48128906 36.85402344 45.40007812 37.77054688 45.31640625 38.71484375 C45 41 45 41 44 42 C39.52908244 42.3414894 35.04475844 42.32542248 30.5625 42.375 C29.31533203 42.41238281 28.06816406 42.44976562 26.78320312 42.48828125 C17.7302111 42.57391123 10.60995957 41.35072493 3.85961914 34.97998047 C-1.76256523 28.98125257 -4.55511072 23.38933884 -4.4375 15.0625 C-4.43266602 14.00289062 -4.43266602 14.00289062 -4.42773438 12.921875 C-4.28144323 7.48388017 -3.36738111 4.20922639 0 0 Z " fill="#0E2487" transform="translate(162,116)"/>
<path d="M0 0 C3.96509139 -0.09990539 7.92968163 -0.17194834 11.89575195 -0.21972656 C13.89756051 -0.24940781 15.89901919 -0.30027058 17.90039062 -0.3515625 C26.76356394 -0.44086399 33.00349732 0.46546884 40.26953125 5.60546875 C45.92212206 11.40116312 49.15672419 17.16230746 49.4375 25.375 C49.20588215 31.04564383 48.35343158 36.80137501 46 42 C43.890625 43.8125 43.890625 43.8125 42 45 C42.165 44.236875 42.33 43.47375 42.5 42.6875 C43.61947601 34.43136441 44.21235689 26.94004822 39 20 C33.58174287 13.93442896 28.36217523 11.35855053 20.23242188 10.81494141 C17.19371529 10.73263895 14.16466323 10.72697225 11.125 10.75 C10.08085937 10.74226562 9.03671875 10.73453125 7.9609375 10.7265625 C6.46820313 10.73042969 6.46820313 10.73042969 4.9453125 10.734375 C3.59203857 10.73775879 3.59203857 10.73775879 2.21142578 10.74121094 C-0.20581198 10.79239408 -0.20581198 10.79239408 -2 13 C-1.85769192 11.58297487 -1.71099254 10.1663904 -1.5625 8.75 C-1.48128906 7.96109375 -1.40007812 7.1721875 -1.31640625 6.359375 C-1.02334935 4.17411119 -0.55243725 2.13111026 0 0 Z " fill="#151C86" transform="translate(190,233)"/>
<path d="M0 0 C5.99961744 1.6362593 10.048209 5.96958765 13.3359375 11.07421875 C17.77749286 19.84707809 16.45553017 28.48108468 14.046875 37.6875 C12.82023884 40.39708436 11.48989716 41.43609765 9 43 C9.165 42.236875 9.33 41.47375 9.5 40.6875 C10.48882927 33.39488416 11.18938356 26.44191016 7.4140625 19.85546875 C4.38872186 15.88575383 0.48390953 12.24195477 -4 10 C-2.8905928 6.51329166 -1.73662334 3.22515763 0 0 Z " fill="#232A9C" transform="translate(223,235)"/>
<path d="M0 0 C0.33 0 0.66 0 1 0 C1.02578125 0.9178125 1.0515625 1.835625 1.078125 2.78125 C1.39961347 13.08303481 1.39961347 13.08303481 6 22 C7.98527419 23.75333126 10.00102849 25.29126075 12.1953125 26.7734375 C14 28 14 28 16 30 C14.35 32.97 12.7 35.94 11 39 C5.42443328 37.64834746 2.24564375 33.46083738 -1 29 C-3.82042479 24.3603685 -4.51300893 20.40853199 -4.4375 15.0625 C-4.43266602 14.00289062 -4.43266602 14.00289062 -4.42773438 12.921875 C-4.28144323 7.48388017 -3.36738111 4.20922639 0 0 Z " fill="#17369D" transform="translate(162,116)"/>
<path d="M0 0 C0.33 0 0.66 0 1 0 C1 2.31 1 4.62 1 7 C1.66 7.33 2.32 7.66 3 8 C1.75023244 11.65316671 1.32901247 12.78065836 -2 15 C-1.34 10.05 -0.68 5.1 0 0 Z " fill="#3D41B3" transform="translate(234,263)"/>
<path d="M0 0 C0.66 0.33 1.32 0.66 2 1 C1.67 2.65 1.34 4.3 1 6 C0.01 6.33 -0.98 6.66 -2 7 C-2.33 6.01 -2.66 5.02 -3 4 C-1.5625 1.8125 -1.5625 1.8125 0 0 Z " fill="#57E6ED" transform="translate(228,39)"/>
<path d="M0 0 C0 3 0 3 -1.3125 4.38671875 C-2.875 5.59114583 -4.4375 6.79557292 -6 8 C-5.8125 5.6875 -5.8125 5.6875 -5 3 C-2.4375 1.1875 -2.4375 1.1875 0 0 Z " fill="#4A6EDC" transform="translate(242,265)"/>
</svg>
